<svg width="60" height="60" viewBox="0 0 60 60" fill="none" xmlns="http://www.w3.org/2000/svg">
<path d="M60 30C60 46.5685 46.5685 60 30 60C13.4315 60 0 46.5685 0 30C0 13.4315 13.4315 0 30 0C46.5685 0 60 13.4315 60 30ZM2.50418 30C2.50418 45.1855 14.8145 57.4958 30 57.4958C45.1855 57.4958 57.4958 45.1855 57.4958 30C57.4958 14.8145 45.1855 2.50418 30 2.50418C14.8145 2.50418 2.50418 14.8145 2.50418 30Z" fill="#EAEAEC"/>
<path d="M55 30C55 43.8071 43.8071 55 30 55C16.1929 55 5 43.8071 5 30C5 16.1929 16.1929 5 30 5C43.8071 5 55 16.1929 55 30ZM7.51045 30C7.51045 42.4206 17.5794 52.4895 30 52.4895C42.4206 52.4895 52.4895 42.4206 52.4895 30C52.4895 17.5794 42.4206 7.51045 30 7.51045C17.5794 7.51045 7.51045 17.5794 7.51045 30Z" fill="#EAEAEC"/>
<path d="M30 6.25C30 5.55964 30.5601 4.99674 31.2496 5.03122C37.1562 5.32663 42.7829 7.70889 47.1137 11.7758C51.4445 15.8427 54.1753 21.3087 54.841 27.1851C54.9188 27.8711 54.3921 28.4654 53.7031 28.5087C53.0141 28.5521 52.424 28.0279 52.3425 27.3424C51.7192 22.1008 49.2695 17.2297 45.4023 13.5982C41.5351 9.96667 36.5199 7.82766 31.2495 7.53469C30.5602 7.49638 30 6.94036 30 6.25Z" fill="#7E7D88"/>
<path d="M30 1.25209C30 0.56058 30.5609 -0.00272752 31.2518 0.0261201C36.8261 0.258866 42.2344 2.04233 46.8625 5.18758C51.8363 8.5678 55.6795 13.3648 57.8933 18.9563C60.1071 24.5477 60.5894 30.6754 59.2775 36.5443C57.9656 42.4132 54.9202 47.7524 50.5364 51.8691C46.1526 55.9857 40.6327 58.6899 34.693 59.6306C28.7533 60.5714 22.668 59.7053 17.2266 57.1448C11.7852 54.5843 7.23898 50.4475 4.17774 45.2712C1.32929 40.4548 -0.111064 34.9452 0.00666527 29.3673C0.0212572 28.6759 0.618672 28.1515 1.30882 28.1949C1.99896 28.2383 2.52025 28.8332 2.50828 29.5246C2.42044 34.6012 3.74031 39.6122 6.33319 43.9965C9.1389 48.7407 13.3057 52.5322 18.2928 54.879C23.28 57.2257 28.8574 58.0195 34.3013 57.1573C39.7452 56.2951 44.8043 53.8166 48.8222 50.0436C52.8401 46.2705 55.6313 41.377 56.8336 35.998C58.036 30.619 57.594 25.0028 55.565 19.8781C53.536 14.7534 50.0136 10.3568 45.4549 7.25874C41.2421 4.39568 36.3239 2.76378 31.2518 2.53268C30.561 2.50121 30 1.9436 30 1.25209Z" fill="#4277FF"/>
<path d="M22.042 25.13C22.2847 25.13 22.4713 25.2 22.602 25.34C22.7327 25.4707 22.798 25.6433 22.798 25.858C22.798 26.0727 22.7327 26.2967 22.602 26.53L18.136 34.636C17.9493 34.9533 17.6927 35.112 17.366 35.112C17.142 35.112 16.9413 35.0373 16.764 34.888C16.596 34.7293 16.512 34.538 16.512 34.314C16.512 34.1553 16.5587 33.9967 16.652 33.838L20.67 26.586H16.442C15.882 26.586 15.602 26.348 15.602 25.872C15.602 25.3773 15.882 25.13 16.442 25.13H22.042ZM28.1965 28.672C28.7845 28.672 29.3072 28.8073 29.7645 29.078C30.2219 29.3393 30.5765 29.7127 30.8285 30.198C31.0899 30.674 31.2205 31.22 31.2205 31.836C31.2205 32.4707 31.0759 33.04 30.7865 33.544C30.5065 34.0387 30.1145 34.426 29.6105 34.706C29.1159 34.986 28.5512 35.126 27.9165 35.126C26.6659 35.126 25.6999 34.706 25.0185 33.866C24.3465 33.0167 24.0105 31.808 24.0105 30.24C24.0105 29.1667 24.1692 28.238 24.4865 27.454C24.8039 26.6607 25.2565 26.054 25.8445 25.634C26.4419 25.214 27.1419 25.004 27.9445 25.004C28.4765 25.004 29.0085 25.102 29.5405 25.298C30.0819 25.4847 30.5392 25.7413 30.9125 26.068C31.0339 26.1707 31.1179 26.2733 31.1645 26.376C31.2205 26.4693 31.2485 26.586 31.2485 26.726C31.2485 26.9313 31.1879 27.1087 31.0665 27.258C30.9545 27.398 30.8192 27.468 30.6605 27.468C30.5672 27.468 30.4785 27.454 30.3945 27.426C30.3105 27.3887 30.2079 27.3327 30.0865 27.258C29.3119 26.7167 28.6212 26.446 28.0145 26.446C27.3332 26.446 26.7965 26.7633 26.4045 27.398C26.0125 28.0233 25.8072 28.9053 25.7885 30.044C26.0032 29.624 26.3252 29.2927 26.7545 29.05C27.1839 28.798 27.6645 28.672 28.1965 28.672ZM27.8185 33.698C28.3319 33.698 28.7425 33.5347 29.0505 33.208C29.3585 32.872 29.5125 32.4333 29.5125 31.892C29.5125 31.3507 29.3585 30.9167 29.0505 30.59C28.7425 30.2633 28.3319 30.1 27.8185 30.1C27.2959 30.1 26.8712 30.268 26.5445 30.604C26.2272 30.9307 26.0685 31.36 26.0685 31.892C26.0685 32.4333 26.2272 32.872 26.5445 33.208C26.8712 33.5347 27.2959 33.698 27.8185 33.698ZM36.4371 34.804C36.3531 34.9533 36.2504 35.0653 36.1291 35.14C36.0077 35.2147 35.8864 35.252 35.7651 35.252C35.5971 35.252 35.4477 35.1913 35.3171 35.07C35.1957 34.9487 35.1351 34.7947 35.1351 34.608C35.1351 34.4493 35.1817 34.2907 35.2751 34.132L40.3711 25.326C40.4551 25.1767 40.5577 25.0647 40.6791 24.99C40.8004 24.9153 40.9217 24.878 41.0431 24.878C41.2111 24.878 41.3557 24.9387 41.4771 25.06C41.6077 25.1813 41.6731 25.3353 41.6731 25.522C41.6731 25.6807 41.6264 25.8393 41.5331 25.998L36.4371 34.804ZM34.8831 31.024C34.0991 31.024 33.4877 30.7673 33.0491 30.254C32.6104 29.7407 32.3911 28.9893 32.3911 28C32.3911 27.02 32.6104 26.2733 33.0491 25.76C33.4877 25.2467 34.0991 24.99 34.8831 24.99C35.6671 24.99 36.2784 25.2467 36.7171 25.76C37.1651 26.2733 37.3891 27.02 37.3891 28C37.3891 28.9893 37.1651 29.7407 36.7171 30.254C36.2784 30.7673 35.6671 31.024 34.8831 31.024ZM34.8831 29.89C35.2377 29.89 35.4944 29.7453 35.6531 29.456C35.8211 29.1573 35.9051 28.672 35.9051 28C35.9051 27.3467 35.8211 26.8707 35.6531 26.572C35.4851 26.2733 35.2284 26.124 34.8831 26.124C34.5377 26.124 34.2811 26.2733 34.1131 26.572C33.9544 26.8613 33.8751 27.3373 33.8751 28C33.8751 28.672 33.9544 29.1573 34.1131 29.456C34.2811 29.7453 34.5377 29.89 34.8831 29.89ZM41.9251 35.098C41.1411 35.098 40.5297 34.8413 40.0911 34.328C39.6524 33.8147 39.4331 33.0587 39.4331 32.06C39.4331 31.08 39.6524 30.338 40.0911 29.834C40.5391 29.3207 41.1504 29.064 41.9251 29.064C42.7091 29.064 43.3204 29.3207 43.7591 29.834C44.1977 30.3473 44.4171 31.094 44.4171 32.074C44.4171 33.0633 44.1977 33.8147 43.7591 34.328C43.3204 34.8413 42.7091 35.098 41.9251 35.098ZM41.9251 33.964C42.2704 33.964 42.5271 33.8193 42.6951 33.53C42.8631 33.2313 42.9471 32.746 42.9471 32.074C42.9471 31.4207 42.8631 30.9447 42.6951 30.646C42.5271 30.3473 42.2704 30.198 41.9251 30.198C41.5797 30.198 41.3231 30.3473 41.1551 30.646C40.9871 30.9447 40.9031 31.4207 40.9031 32.074C40.9031 32.746 40.9871 33.2313 41.1551 33.53C41.3231 33.8193 41.5797 33.964 41.9251 33.964Z" fill="#535261"/>
</svg>
